<?xml version="1.0" encoding="UTF-8"?>
<!DOCTYPE svg PUBLIC "-//W3C//DTD SVG 1.1//EN" "http://www.w3.org/Graphics/SVG/1.1/DTD/svg11.dtd">
<svg xmlns="http://www.w3.org/2000/svg" version="1.1" width="1200px" height="1200px" style="shape-rendering:geometricPrecision; text-rendering:geometricPrecision; image-rendering:optimizeQuality; fill-rule:evenodd; clip-rule:evenodd" xmlns:xlink="http://www.w3.org/1999/xlink">
<g><path style="opacity:1" fill="#e69115" d="M -0.5,-0.5 C 399.5,-0.5 799.5,-0.5 1199.5,-0.5C 1199.5,399.5 1199.5,799.5 1199.5,1199.5C 799.5,1199.5 399.5,1199.5 -0.5,1199.5C -0.5,799.5 -0.5,399.5 -0.5,-0.5 Z"/></g>
<g><path style="opacity:1" fill="#2e2927" d="M 862.5,629.5 C 861.596,630.209 861.263,631.209 861.5,632.5C 915.336,632.168 969.003,632.501 1022.5,633.5C 1009.3,652.725 995.966,671.892 982.5,691C 995.966,710.108 1009.3,729.275 1022.5,748.5C 953.833,749.167 885.167,749.833 816.5,750.5C 762.278,824.615 688.944,862.282 596.5,863.5C 517.943,861.716 452.443,831.716 400,773.5C 393.672,766.163 387.839,758.496 382.5,750.5C 313.833,749.833 245.167,749.167 176.5,748.5C 189.7,729.275 203.034,710.108 216.5,691C 203.034,671.892 189.7,652.725 176.5,633.5C 229.833,632.833 283.167,632.167 336.5,631.5C 327.894,520.22 369.894,434.053 462.5,373C 522.887,337.416 587.554,326.75 656.5,341C 743.487,362.663 805.653,414.163 843,495.5C 860.953,538.455 867.453,583.121 862.5,629.5 Z"/></g>
<g><path style="opacity:1" fill="#e59115" d="M 724.5,622.5 C 734.167,622.5 743.833,622.5 753.5,622.5C 753.5,607.167 753.5,591.833 753.5,576.5C 743.833,576.5 734.167,576.5 724.5,576.5C 723.21,575.942 722.377,574.942 722,573.5C 719.161,561.48 714.661,550.147 708.5,539.5C 704.513,538.447 700.513,537.947 696.5,538C 669.969,569.358 643.302,600.525 616.5,631.5C 612.298,631.817 608.298,631.483 604.5,630.5C 633.707,595.938 663.04,561.438 692.5,527C 713.829,531.619 733.162,527.286 750.5,514C 770.447,496.025 776.947,474.191 770,448.5C 759.618,460.76 749.118,472.927 738.5,485C 732.5,485.667 726.5,485.667 720.5,485C 713.275,484.877 706.275,483.711 699.5,481.5C 695.793,470.314 692.46,458.981 689.5,447.5C 690.361,444.473 691.861,441.806 694,439.5C 703.021,429.314 711.854,418.98 720.5,408.5C 703.158,405.27 687.491,409.104 673.5,420C 648.415,442.583 643.249,469.083 658,499.5C 658.706,501.971 658.373,504.305 657,506.5C 621.26,548.064 585.76,589.731 550.5,631.5C 546.298,631.817 542.298,631.483 538.5,630.5C 574.831,588 610.998,545.333 647,502.5C 644.719,496.391 642.886,490.057 641.5,483.5C 636.187,482.339 630.854,481.172 625.5,480C 624.667,479.167 623.833,478.333 623,477.5C 622.5,468.173 622.334,458.839 622.5,449.5C 607.167,449.5 591.833,449.5 576.5,449.5C 576.666,458.506 576.5,467.506 576,476.5C 574.992,478.259 573.492,479.426 571.5,480C 565.411,481.355 559.411,483.022 553.5,485C 545.23,488.72 537.063,492.553 529,496.5C 528.167,496.333 527.333,496.167 526.5,496C 520.302,489.468 513.802,483.301 507,477.5C 496.5,488 486,498.5 475.5,509C 481.667,515.167 487.833,521.333 494,527.5C 494.167,528.5 494.333,529.5 494.5,530.5C 491.026,537.448 487.526,544.448 484,551.5C 481.324,559.514 478.657,567.514 476,575.5C 475.5,576 475,576.5 474.5,577C 465.173,577.5 455.839,577.666 446.5,577.5C 446.5,592.167 446.5,606.833 446.5,621.5C 455.839,621.334 465.173,621.5 474.5,622C 477.271,624.89 478.604,628.39 478.5,632.5C 435.5,632.5 392.5,632.5 349.5,632.5C 340.34,537.694 372.34,460.194 445.5,400C 527.339,341.103 614.673,331.769 707.5,372C 792.839,415.76 840.672,485.593 851,581.5C 851.77,598.541 851.27,615.541 849.5,632.5C 806.5,632.5 763.5,632.5 720.5,632.5C 720.099,628.349 721.433,625.015 724.5,622.5 Z"/></g>
<g><path style="opacity:1" fill="#a36a1d" d="M 724.5,576.5 C 734.167,576.5 743.833,576.5 753.5,576.5C 753.5,591.833 753.5,607.167 753.5,622.5C 743.833,622.5 734.167,622.5 724.5,622.5C 733.652,621.506 742.985,621.173 752.5,621.5C 752.5,606.833 752.5,592.167 752.5,577.5C 742.985,577.827 733.652,577.494 724.5,576.5 Z"/></g>
<g><path style="opacity:1" fill="#8a5c1e" d="M 336.5,631.5 C 283.167,632.167 229.833,632.833 176.5,633.5C 175.957,633.44 175.624,633.107 175.5,632.5C 229.163,631.5 282.829,631.167 336.5,631.5 Z"/></g>
<g><path style="opacity:1" fill="#885b1e" d="M 538.5,630.5 C 542.298,631.483 546.298,631.817 550.5,631.5C 546.317,632.811 541.984,632.811 537.5,631.5C 537.624,630.893 537.957,630.56 538.5,630.5 Z"/></g>
<g><path style="opacity:1" fill="#895b1e" d="M 604.5,630.5 C 608.298,631.483 612.298,631.817 616.5,631.5C 612.317,632.811 607.984,632.811 603.5,631.5C 603.624,630.893 603.957,630.56 604.5,630.5 Z"/></g>
<g><path style="opacity:1" fill="#895b1e" d="M 862.5,629.5 C 915.827,631.164 969.494,632.164 1023.5,632.5C 1023.38,633.107 1023.04,633.44 1022.5,633.5C 969.003,632.501 915.336,632.168 861.5,632.5C 861.263,631.209 861.596,630.209 862.5,629.5 Z"/></g>
<g><path style="opacity:1" fill="#e79114" d="M 499.5,648.5 C 502.167,648.5 504.833,648.5 507.5,648.5C 507.5,672.167 507.5,695.833 507.5,719.5C 504.833,719.5 502.167,719.5 499.5,719.5C 499.5,695.833 499.5,672.167 499.5,648.5 Z"/></g>
<g><path style="opacity:1" fill="#e38f15" d="M 657.5,648.5 C 657.334,658.172 657.5,667.839 658,677.5C 658.717,676.956 659.217,676.289 659.5,675.5C 667.64,668.397 676.306,667.73 685.5,673.5C 688.688,676.539 690.855,680.206 692,684.5C 693.644,694.008 692.311,703.008 688,711.5C 681.852,718.993 674.018,721.493 664.5,719C 662.04,717.542 659.873,715.709 658,713.5C 657.749,715.433 657.249,717.266 656.5,719C 654.19,719.497 651.857,719.663 649.5,719.5C 649.5,695.833 649.5,672.167 649.5,648.5C 652.167,648.5 654.833,648.5 657.5,648.5 Z"/></g>
<g><path style="opacity:1" fill="#875b1f" d="M 238.5,650.5 C 235.615,650.194 232.948,650.527 230.5,651.5C 229.957,651.44 229.624,651.107 229.5,650.5C 232.645,649.197 235.645,649.197 238.5,650.5 Z"/></g>
<g><path style="opacity:1" fill="#dc8b16" d="M 304.5,648.5 C 310.17,648.339 313.003,651.006 313,656.5C 310.947,660.292 307.781,661.458 303.5,660C 299.376,655.695 299.709,651.862 304.5,648.5 Z"/></g>
<g><path style="opacity:1" fill="#e08d16" d="M 743.5,648.5 C 753.048,647.297 761.381,649.797 768.5,656C 768.003,658.514 766.669,660.348 764.5,661.5C 759.844,658.837 754.844,657.17 749.5,656.5C 740.168,657.328 736.334,662.328 738,671.5C 739.167,672.667 740.333,673.833 741.5,675C 748.753,678.195 756.086,681.195 763.5,684C 772.434,693.552 772.768,703.552 764.5,714C 753.083,720.981 741.417,721.315 729.5,715C 724.273,711.279 724.606,708.112 730.5,705.5C 733.636,707.57 736.969,709.404 740.5,711C 744.833,711.667 749.167,711.667 753.5,711C 759.996,707.877 762.496,702.71 761,695.5C 760.167,694.5 759.333,693.5 758.5,692.5C 750.493,689.105 742.493,685.605 734.5,682C 728.883,676.289 727.05,669.455 729,661.5C 732.162,655.164 736.996,650.831 743.5,648.5 Z"/></g>
<g><path style="opacity:1" fill="#e08e16" d="M 230.5,651.5 C 232.948,650.527 235.615,650.194 238.5,650.5C 247.177,668.666 255.011,687.333 262,706.5C 269.324,688.534 276.658,670.534 284,652.5C 286.897,649.769 290.397,648.769 294.5,649.5C 285.833,672.663 276.666,695.663 267,718.5C 263.943,719.451 260.777,719.784 257.5,719.5C 248.506,696.844 239.506,674.177 230.5,651.5 Z"/></g>
<g><path style="opacity:1" fill="#e69115" d="M 532.5,650.5 C 532.5,660.5 532.5,670.5 532.5,680.5C 545.167,680.5 557.833,680.5 570.5,680.5C 570.5,670.5 570.5,660.5 570.5,650.5C 573.5,650.5 576.5,650.5 579.5,650.5C 579.5,673.5 579.5,696.5 579.5,719.5C 576.5,719.5 573.5,719.5 570.5,719.5C 570.5,708.833 570.5,698.167 570.5,687.5C 557.833,687.5 545.167,687.5 532.5,687.5C 532.5,698.167 532.5,708.833 532.5,719.5C 529.5,719.5 526.5,719.5 523.5,719.5C 523.5,696.5 523.5,673.5 523.5,650.5C 526.5,650.5 529.5,650.5 532.5,650.5 Z"/></g>
<g><path style="opacity:1" fill="#704d21" d="M 532.5,650.5 C 529.5,650.5 526.5,650.5 523.5,650.5C 523.5,673.5 523.5,696.5 523.5,719.5C 522.502,696.339 522.169,673.006 522.5,649.5C 526.042,649.187 529.375,649.521 532.5,650.5 Z"/></g>
<g><path style="opacity:1" fill="#704d21" d="M 570.5,650.5 C 573.625,649.521 576.958,649.187 580.5,649.5C 580.831,673.006 580.498,696.339 579.5,719.5C 579.5,696.5 579.5,673.5 579.5,650.5C 576.5,650.5 573.5,650.5 570.5,650.5 Z"/></g>
<g><path style="opacity:1" fill="#714e20" d="M 657.5,648.5 C 658.167,657.5 658.833,666.5 659.5,675.5C 659.217,676.289 658.717,676.956 658,677.5C 657.5,667.839 657.334,658.172 657.5,648.5 Z"/></g>
<g><path style="opacity:1" fill="#e38f15" d="M 367.5,654.5 C 369.167,654.5 370.833,654.5 372.5,654.5C 372.5,660.167 372.5,665.833 372.5,671.5C 377.5,671.5 382.5,671.5 387.5,671.5C 387.5,673.5 387.5,675.5 387.5,677.5C 382.5,677.5 377.5,677.5 372.5,677.5C 372.333,688.172 372.5,698.839 373,709.5C 376.449,713.153 380.283,713.486 384.5,710.5C 388.921,714.416 388.255,717.249 382.5,719C 377.713,719.879 373.047,719.545 368.5,718C 366.513,716.681 365.346,714.848 365,712.5C 364.5,700.838 364.333,689.171 364.5,677.5C 361.833,677.5 359.167,677.5 356.5,677.5C 356.5,675.5 356.5,673.5 356.5,671.5C 359.167,671.5 361.833,671.5 364.5,671.5C 364.889,666.496 365.389,661.496 366,656.5C 366.278,655.584 366.778,654.918 367.5,654.5 Z"/></g>
<g><path style="opacity:1" fill="#6d4c22" d="M 367.5,654.5 C 369.265,653.539 371.265,653.205 373.5,653.5C 373.5,659.167 373.5,664.833 373.5,670.5C 378.363,670.181 383.03,670.514 387.5,671.5C 382.5,671.5 377.5,671.5 372.5,671.5C 372.5,665.833 372.5,660.167 372.5,654.5C 370.833,654.5 369.167,654.5 367.5,654.5 Z"/></g>
<g><path style="opacity:1" fill="#e08d16" d="M 838.5,653.5 C 840.5,653.5 842.5,653.5 844.5,653.5C 844.5,659.5 844.5,665.5 844.5,671.5C 849.167,671.5 853.833,671.5 858.5,671.5C 858.5,673.5 858.5,675.5 858.5,677.5C 853.833,677.5 849.167,677.5 844.5,677.5C 844.333,688.172 844.5,698.839 845,709.5C 845.758,711.91 847.425,712.91 850,712.5C 852.279,712.561 854.279,711.895 856,710.5C 859.799,713.108 859.965,715.608 856.5,718C 851.589,719.492 846.589,719.826 841.5,719C 838.865,717.039 837.031,714.539 836,711.5C 835.5,700.172 835.333,688.838 835.5,677.5C 833.143,677.663 830.81,677.497 828.5,677C 827.594,675.301 827.261,673.467 827.5,671.5C 830.448,671.777 833.281,671.444 836,670.5C 836.309,664.734 837.142,659.067 838.5,653.5 Z"/></g>
<g><path style="opacity:1" fill="#df8d16" d="M 343.5,669.5 C 346.881,669.46 350.214,669.793 353.5,670.5C 353.425,673.206 353.092,675.873 352.5,678.5C 344.299,676.4 338.466,679.066 335,686.5C 334.5,697.495 334.333,708.495 334.5,719.5C 331.5,719.5 328.5,719.5 325.5,719.5C 325.5,703.167 325.5,686.833 325.5,670.5C 328.119,670.232 330.619,670.565 333,671.5C 333.333,674.167 333.667,676.833 334,679.5C 336.022,674.98 339.189,671.647 343.5,669.5 Z"/></g>
<g><path style="opacity:1" fill="#e08e16" d="M 794.5,669.5 C 813.311,667.314 822.644,675.647 822.5,694.5C 810.833,694.5 799.167,694.5 787.5,694.5C 786.955,705.282 791.955,711.615 802.5,713.5C 807.665,712.836 812.499,711.169 817,708.5C 818.96,709.292 820.46,710.625 821.5,712.5C 816.329,717.782 809.995,720.115 802.5,719.5C 789.624,719.471 781.791,713.138 779,700.5C 776.276,685.946 781.443,675.612 794.5,669.5 Z"/></g>
<g><path style="opacity:1" fill="#e18e15" d="M 302.5,670.5 C 305.5,670.5 308.5,670.5 311.5,670.5C 311.5,686.833 311.5,703.167 311.5,719.5C 308.5,719.5 305.5,719.5 302.5,719.5C 302.5,703.167 302.5,686.833 302.5,670.5 Z"/></g>
<g><path style="opacity:1" fill="#df8d16" d="M 395.5,670.5 C 398.5,670.5 401.5,670.5 404.5,670.5C 404.333,682.505 404.5,694.505 405,706.5C 406.439,711.141 409.606,713.141 414.5,712.5C 419.273,712.364 423.44,710.697 427,707.5C 427.5,695.171 427.667,682.838 427.5,670.5C 430.5,670.5 433.5,670.5 436.5,670.5C 436.5,686.833 436.5,703.167 436.5,719.5C 434.143,719.663 431.81,719.497 429.5,719C 428.736,716.931 428.236,714.764 428,712.5C 421.855,719.088 414.355,721.255 405.5,719C 400.6,717.098 397.433,713.598 396,708.5C 395.5,695.838 395.333,683.171 395.5,670.5 Z"/></g>
<g><path style="opacity:1" fill="#e08e16" d="M 461.5,669.5 C 471.141,667.539 478.641,670.539 484,678.5C 485.446,692.093 485.946,705.76 485.5,719.5C 480.658,720.338 477.991,718.338 477.5,713.5C 470.843,719.179 463.176,721.012 454.5,719C 448.004,715.877 445.504,710.71 447,703.5C 451.097,696.525 457.264,692.692 465.5,692C 469.486,691.501 473.486,691.334 477.5,691.5C 478.913,682.284 475.08,677.284 466,676.5C 462.093,677.036 458.593,678.536 455.5,681C 451.526,682.022 449.692,680.522 450,676.5C 453.514,673.5 457.347,671.167 461.5,669.5 Z"/></g>
<g><path style="opacity:1" fill="#df8d16" d="M 594.5,670.5 C 597.5,670.5 600.5,670.5 603.5,670.5C 603.333,682.505 603.5,694.505 604,706.5C 605.439,711.141 608.606,713.141 613.5,712.5C 618.273,712.364 622.44,710.697 626,707.5C 626.5,695.171 626.667,682.838 626.5,670.5C 629.5,670.5 632.5,670.5 635.5,670.5C 635.5,686.833 635.5,703.167 635.5,719.5C 633.143,719.663 630.81,719.497 628.5,719C 627.736,716.931 627.236,714.764 627,712.5C 620.79,718.901 613.29,721.068 604.5,719C 599.6,717.098 596.433,713.598 595,708.5C 594.5,695.838 594.333,683.171 594.5,670.5 Z"/></g>
<g><path style="opacity:1" fill="#e18e15" d="M 867.5,670.5 C 870.167,670.5 872.833,670.5 875.5,670.5C 875.333,681.838 875.5,693.172 876,704.5C 878.483,712.079 883.65,714.579 891.5,712C 894.562,710.939 897.062,709.106 899,706.5C 899.5,694.505 899.667,682.505 899.5,670.5C 902.5,670.5 905.5,670.5 908.5,670.5C 908.5,686.833 908.5,703.167 908.5,719.5C 906.143,719.663 903.81,719.497 901.5,719C 900.736,716.931 900.236,714.764 900,712.5C 893.463,719.042 885.629,721.209 876.5,719C 871.734,716.571 868.9,712.737 868,707.5C 867.5,695.171 867.333,682.838 867.5,670.5 Z"/></g>
<g><path style="opacity:1" fill="#e38f15" d="M 941.5,669.5 C 953.614,667.806 961.447,672.806 965,684.5C 966.644,694.008 965.311,703.008 961,711.5C 954.852,718.993 947.018,721.493 937.5,719C 934.898,718.117 932.731,716.617 931,714.5C 930.5,721.826 930.334,729.159 930.5,736.5C 927.833,736.5 925.167,736.5 922.5,736.5C 922.5,714.5 922.5,692.5 922.5,670.5C 928.211,669.38 931.044,671.713 931,677.5C 933.94,673.963 937.44,671.297 941.5,669.5 Z"/></g>
<g><path style="opacity:1" fill="#2f2a27" d="M 797.5,675.5 C 808.066,674.41 813.732,679.076 814.5,689.5C 805.475,689.832 796.475,689.498 787.5,688.5C 788.62,682.389 791.954,678.056 797.5,675.5 Z"/></g>
<g><path style="opacity:1" fill="#302a27" d="M 666.5,676.5 C 674.493,675.097 679.993,678.097 683,685.5C 684.356,693.529 683.356,701.195 680,708.5C 672.374,715.382 665.041,715.049 658,707.5C 657.333,699.5 657.333,691.5 658,683.5C 660.441,680.546 663.275,678.213 666.5,676.5 Z"/></g>
<g><path style="opacity:1" fill="#302b27" d="M 939.5,676.5 C 948.647,674.827 954.147,678.494 956,687.5C 957.231,694.85 956.231,701.85 953,708.5C 945.374,715.382 938.041,715.049 931,707.5C 930.333,699.5 930.333,691.5 931,683.5C 933.441,680.546 936.275,678.213 939.5,676.5 Z"/></g>
<g><path style="opacity:1" fill="#2f2a27" d="M 469.5,697.5 C 471.833,697.5 474.167,697.5 476.5,697.5C 476.5,700.833 476.5,704.167 476.5,707.5C 471.74,713.027 465.74,714.86 458.5,713C 453.859,707.161 454.859,702.495 461.5,699C 464.168,698.433 466.834,697.933 469.5,697.5 Z"/></g>
<g><path style="opacity:1" fill="#7a5320" d="M 469.5,697.5 C 471.948,696.527 474.615,696.194 477.5,696.5C 477.815,700.371 477.482,704.038 476.5,707.5C 476.5,704.167 476.5,700.833 476.5,697.5C 474.167,697.5 471.833,697.5 469.5,697.5 Z"/></g>
<g><path style="opacity:1" fill="#b7761b" d="M 176.5,748.5 C 245.167,749.167 313.833,749.833 382.5,750.5C 313.166,750.667 243.833,750.5 174.5,750C 175.044,749.283 175.711,748.783 176.5,748.5 Z"/></g>
<g><path style="opacity:1" fill="#b5751b" d="M 428.5,750.5 C 418.652,750.173 408.986,750.506 399.5,751.5C 398.711,751.217 398.044,750.717 397.5,750C 408.008,749.175 418.342,749.341 428.5,750.5 Z"/></g>
<g><path style="opacity:1" fill="#ab6f1c" d="M 576.5,749.5 C 651.501,749.333 726.501,749.5 801.5,750C 800.956,750.717 800.289,751.217 799.5,751.5C 725.167,750.833 650.833,750.167 576.5,749.5 Z"/></g>
<g><path style="opacity:1" fill="#b7761b" d="M 1022.5,748.5 C 1023.29,748.783 1023.96,749.283 1024.5,750C 955.167,750.5 885.834,750.667 816.5,750.5C 885.167,749.833 953.833,749.167 1022.5,748.5 Z"/></g>
<g><path style="opacity:1" fill="#e69115" d="M 576.5,749.5 C 650.833,750.167 725.167,750.833 799.5,751.5C 748.563,816.551 681.396,849.884 598,851.5C 528.499,850.018 469.166,825.018 420,776.5C 412.68,768.504 405.847,760.17 399.5,751.5C 408.986,750.506 418.652,750.173 428.5,750.5C 455.426,749.509 482.426,749.176 509.5,749.5C 509.453,752.928 508.287,755.928 506,758.5C 496.646,769.019 487.48,779.686 478.5,790.5C 510.804,793.181 533.471,779.681 546.5,750C 556.494,749.5 566.494,749.334 576.5,749.5 Z"/></g>
</svg>
