<?xml version="1.0" standalone="no"?>
<!DOCTYPE svg PUBLIC "-//W3C//DTD SVG 20010904//EN"
 "http://www.w3.org/TR/2001/REC-SVG-20010904/DTD/svg10.dtd">
<svg version="1.0" xmlns="http://www.w3.org/2000/svg"
 width="1200.000000pt" height="1200.000000pt" viewBox="0 0 1200.000000 1200.000000"
 preserveAspectRatio="xMidYMid meet">
<metadata>
Created by potrace 1.14, written by Peter Selinger 2001-2017
</metadata>
<g transform="translate(0.000000,1200.000000) scale(0.100000,-0.100000)"
fill="#000000" stroke="none">
<path d="M5837 8643 c-1 -1 -33 -4 -72 -8 -65 -5 -100 -10 -165 -20 -14 -3
-43 -7 -65 -10 -77 -11 -281 -64 -380 -98 -157 -54 -357 -142 -400 -177 -5 -5
-14 -8 -18 -9 -28 0 -251 -148 -403 -266 -87 -68 -208 -186 -323 -316 -100
-112 -111 -126 -151 -184 -19 -28 -38 -54 -42 -60 -48 -58 -188 -310 -242
-435 -15 -36 -31 -74 -36 -85 -44 -101 -128 -391 -144 -499 -4 -21 -8 -48 -11
-60 -26 -125 -36 -443 -21 -646 l7 -95 -804 0 c-537 0 -803 -3 -799 -10 5 -9
32 -50 177 -260 149 -216 215 -314 215 -320 0 -6 -64 -101 -268 -395 -63 -91
-117 -172 -119 -180 -4 -13 114 -15 1022 -14 l1025 1 76 -100 c155 -203 384
-423 595 -569 99 -69 267 -168 285 -168 8 0 14 -4 14 -8 0 -8 104 -58 235
-112 208 -87 504 -156 755 -176 186 -15 504 -4 626 21 12 3 39 7 60 10 85 13
308 70 369 95 11 4 54 20 95 35 381 141 731 378 1020 691 75 82 97 107 168
200 l62 81 1020 0 c561 0 1023 3 1026 6 3 3 -23 48 -58 99 -35 51 -124 180
-197 286 -73 106 -131 198 -128 205 2 6 59 91 125 187 66 96 145 210 174 253
29 43 61 88 71 99 9 12 17 26 17 32 0 8 -224 11 -800 11 l-801 0 7 95 c13 171
7 481 -11 564 -2 11 -6 39 -9 61 -3 22 -7 50 -10 61 -2 12 -7 39 -10 60 -19
122 -121 437 -188 581 -73 158 -227 412 -322 528 -53 65 -185 215 -211 238
-11 10 -49 46 -85 81 -129 123 -334 273 -490 358 -146 80 -180 96 -300 145
-205 83 -379 134 -550 159 -19 3 -60 9 -90 14 -93 16 -208 23 -368 24 -85 1
-154 0 -155 -1z m407 -137 c38 -3 81 -8 95 -10 14 -3 46 -7 71 -11 25 -4 81
-16 125 -27 44 -10 93 -21 108 -24 16 -3 70 -19 120 -35 577 -188 1069 -574
1380 -1081 54 -87 164 -305 197 -388 50 -127 122 -381 134 -472 5 -33 12 -80
21 -128 14 -78 18 -132 19 -290 2 -184 -9 -350 -24 -360 -12 -8 -1267 -6
-1275 2 -11 11 15 77 33 86 9 5 77 8 150 7 100 0 132 3 132 12 1 7 1 96 1 198
0 102 0 198 -1 213 l0 28 -130 -1 c-71 0 -139 3 -149 7 -12 4 -24 24 -31 50
-37 134 -121 328 -143 328 -8 0 -34 3 -59 6 l-45 6 -63 -73 c-34 -41 -72 -85
-84 -99 -79 -94 -132 -156 -136 -160 -3 -3 -53 -61 -110 -130 -57 -69 -107
-127 -110 -130 -3 -3 -25 -30 -50 -60 -25 -30 -50 -59 -56 -65 -6 -5 -44 -50
-85 -100 -113 -138 -101 -129 -174 -130 -36 0 -65 0 -65 1 0 2 6 9 13 16 6 7
34 40 62 73 27 33 52 62 55 65 3 3 27 32 55 65 27 33 52 62 55 65 3 3 51 59
105 125 55 66 103 122 106 125 3 3 55 64 114 135 60 72 112 132 115 135 3 3
52 60 108 126 l102 122 38 -6 c80 -14 255 -6 312 13 117 38 222 103 288 175
99 110 163 262 168 400 2 81 -13 200 -25 200 -6 0 -22 -17 -156 -175 -176
-206 -174 -204 -198 -200 -12 2 -58 7 -102 10 -78 5 -135 11 -205 21 -19 2
-40 10 -47 17 -12 13 -103 312 -103 340 0 14 46 75 143 187 153 179 177 210
160 211 -126 9 -216 -3 -311 -40 -132 -52 -258 -165 -318 -283 -52 -102 -63
-142 -71 -258 -6 -97 17 -214 62 -304 14 -27 25 -56 25 -65 0 -15 -36 -67 -81
-116 -15 -16 -58 -66 -94 -109 -37 -44 -72 -85 -78 -92 -7 -6 -25 -29 -42 -49
-16 -20 -39 -47 -50 -59 -11 -13 -38 -44 -60 -71 -22 -27 -45 -53 -50 -59 -6
-6 -73 -85 -150 -176 -77 -91 -213 -253 -304 -360 -91 -107 -166 -197 -168
-199 -2 -3 -30 -5 -63 -6 -42 -1 -60 2 -60 11 0 7 6 17 13 21 6 4 57 62 112
128 55 66 110 131 121 145 12 14 41 48 64 75 23 28 52 61 64 75 12 14 148 174
301 355 154 182 285 336 293 344 7 8 38 44 68 81 l54 67 -26 69 c-15 38 -30
78 -34 90 -8 21 -86 54 -128 54 -11 0 -29 8 -41 18 -20 16 -22 27 -24 156 l-2
138 -225 1 -225 0 -2 -124 c-4 -170 -2 -165 -71 -184 -110 -31 -208 -69 -299
-117 -51 -26 -101 -48 -111 -48 -10 0 -62 43 -116 96 l-98 96 -30 -29 c-16
-15 -89 -87 -162 -159 l-132 -131 98 -94 c63 -60 98 -102 98 -115 0 -12 -15
-46 -32 -76 -29 -48 -50 -91 -94 -193 -7 -16 -22 -63 -33 -104 -11 -41 -25
-79 -31 -85 -6 -6 -67 -11 -150 -11 l-140 0 0 -225 0 -226 131 1 c165 1 172
-3 182 -80 2 -19 -7 -19 -636 -20 -352 0 -641 3 -643 6 -9 15 -16 117 -18 284
-5 307 35 564 131 845 33 97 93 245 114 280 4 8 17 34 28 58 34 73 193 327
221 352 3 3 27 34 55 70 269 352 709 663 1144 810 117 39 339 96 410 105 30 4
63 9 75 11 12 2 59 7 106 10 47 4 86 7 87 9 6 4 323 -3 387 -9z m-1144 -4026
c0 -18 -41 -79 -81 -120 -14 -14 -47 -52 -74 -85 -28 -33 -64 -76 -81 -95 -18
-19 -44 -49 -58 -66 l-26 -32 33 -5 c90 -16 234 12 347 66 96 47 225 178 273
277 l36 75 1271 1 c698 1 1270 -1 1270 -5 0 -9 -99 -130 -160 -195 -74 -80
-180 -181 -255 -241 -38 -31 -77 -62 -87 -70 -112 -91 -369 -237 -553 -313
-145 -60 -364 -126 -485 -146 -19 -3 -62 -10 -94 -16 -251 -42 -655 -30 -896
26 -299 69 -492 144 -737 285 -211 122 -366 243 -551 429 -53 54 -202 231
-202 240 0 4 250 7 555 7 517 0 555 -1 555 -17z"/>
</g>
</svg>
